<?xml version="1.0" encoding="UTF-8" standalone="no"?>
<!-- Created with Inkscape (http://www.inkscape.org/) -->

<svg
   version="1.1"
   id="svg1"
   width="2000"
   height="2000"
   viewBox="0 0 2000 2000"
   sodipodi:docname="favicon.png"
   inkscape:export-filename="favicon.svg"
   inkscape:export-xdpi="96"
   inkscape:export-ydpi="96"
   xmlns:inkscape="http://www.inkscape.org/namespaces/inkscape"
   xmlns:sodipodi="http://sodipodi.sourceforge.net/DTD/sodipodi-0.dtd"
   xmlns="http://www.w3.org/2000/svg"
   xmlns:svg="http://www.w3.org/2000/svg">
  <defs
     id="defs1" />
  <sodipodi:namedview
     id="namedview1"
     pagecolor="#ffffff"
     bordercolor="#cccccc"
     borderopacity="1"
     inkscape:showpageshadow="0"
     inkscape:pageopacity="1"
     inkscape:pagecheckerboard="0"
     inkscape:deskcolor="#d1d1d1">
    <inkscape:page
       x="0"
       y="0"
       width="2000"
       height="2000"
       id="page2"
       margin="0"
       bleed="0" />
  </sodipodi:namedview>
  <g
     inkscape:groupmode="layer"
     inkscape:label="Image"
     id="g1">
    <path
       style="fill:#f67623;fill-opacity:1;stroke-width:1"
       d="m 997.25201,1766.1527 c -3.4921,-4.3836 -34.86382,-63.8184 -88.41791,-167.51 -9.98441,-19.3324 -22.33811,-43.0583 -27.45271,-52.7246 -5.11429,-9.6661 -15.9981,-30.4264 -24.1865,-46.1339 -8.1881,-15.7075 -19.0619,-36.4678 -24.1635,-46.1339 -15.1525,-28.7086 -34.7657,-66.2225 -50.5374,-96.6615 -8.1387,-15.7075 -19.12562,-36.7149 -24.41562,-46.6831 -51.64074,-97.3103 -62.61556,-119.1572 -61.09468,-121.6178 1.3772,-2.2285 32.67769,-17.8376 131.6618,-65.657 16.9158,-8.172 38.6647,-18.5187 48.3308,-22.9924 9.6661,-4.474 26.8226,-12.6778 38.1257,-18.2311 14.573,-7.1597 21.4935,-9.5022 23.7911,-8.0529 1.7818,1.1239 9.1625,13.4109 16.4016,27.3041 7.2389,13.8934 16.71041,31.6864 21.04791,39.5401 4.3375,7.8538 10.8584,19.964 14.4908,26.9116 3.8094,7.2857 8.07811,12.6318 10.0862,12.6318 2.3586,0 14.7379,-22.1419 38.3826,-68.6516 19.1955,-37.7585 41.3126,-80.8526 49.1486,-95.7644 l 14.2476,-27.11243 88.8911,-43.73612 c 48.8901,-24.0548 89.1871,-43.736 89.5491,-43.736 1.1453,0 42.6509,-19.5919 80.2437,-37.8775 19.9363,-9.6972 51.0768,-24.7705 69.2009,-33.4959 78.4912,-37.7882 77.9882,-37.59 77.9882,-30.7315 0,3.823 -11.9335,28.0913 -31.8438,64.7583 -7.545,13.8953 -21.3879,40.0927 -30.7619,58.2167 -9.3739,18.1241 -22.2225,42.83872 -28.552,54.92132 -6.3296,12.0826 -18.2043,34.82013 -26.3878,50.52763 -18.3572,35.2342 -31.7757,60.6188 -38.9025,73.5948 -2.9864,5.4372 -11.6748,21.7489 -19.3073,36.2481 -7.6327,14.4993 -15.8251,29.8223 -18.2049,34.0512 -2.3801,4.229 -14.5526,27.9549 -27.0503,52.7244 -20.996,41.6133 -28.9189,56.8964 -67.763,130.7128 -7.6299,14.4993 -20.5476,39.2138 -28.706,54.9214 -8.1587,15.7075 -16.5507,31.5248 -18.6491,35.1496 -6.1379,10.6025 -20.0261,36.896 -62.0804,117.5317 -7.2468,13.8951 -15.8801,30.2067 -19.1848,36.2481 -9.7217,17.7712 -34.9576,65.3576 -57.0865,107.6458 -21.6537,41.3802 -33.1613,62.6102 -33.937,62.6102 -0.39309,0 -1.6989,-1.2357 -2.90209,-2.746 z M 664.67764,1133.459 c -2.40007,-2.7186 -10.30281,-16.3116 -17.56164,-30.2068 -7.25906,-13.8951 -20.68184,-39.5983 -29.82866,-57.1181 -9.14682,-17.5202 -20.33692,-38.7747 -24.86707,-47.23263 -4.53012,-8.4579 -20.32594,-38.6097 -35.10175,-67.00392 -14.77603,-28.3944 -29.09314,-55.5804 -31.81614,-60.4135 -5.53015,-9.8159 -27.22253,-51.5678 -59.35174,-114.23641 -11.76985,-22.95708 -24.59464,-47.67172 -28.49977,-54.9213 -16.8916,-31.35871 -28.43299,-53.44093 -51.66868,-98.85839 -34.638,-67.70526 -57.48659,-111.65698 -59.3862,-114.23636 -0.88995,-1.20828 -9.25688,-17.02562 -18.59351,-35.14966 -28.64083,-55.59785 -52.0417,-100.56794 -57.72979,-110.94108 -16.58075,-30.2379 -53.2225,-103.2727 -53.2225,-106.08399 0,-1.80873 1.56371,-3.88867 3.47497,-4.62207 1.91105,-0.73342 70.0023,-1.33347 151.31376,-1.33347 115.65598,0 148.30868,0.59779 149.99632,2.74606 1.18651,1.51034 18.21674,34.38077 37.84475,73.04537 19.62823,38.66462 36.44381,71.2879 37.36825,72.49617 0.92422,1.20827 13.31446,24.93428 27.53359,52.72447 42.5278,83.11686 67.06511,130.75307 73.45178,142.597 6.20284,11.50293 38.00316,73.37687 81.39604,158.37184 13.57084,26.58194 25.40404,49.31942 26.29574,50.52772 0.8917,1.2082 9.3259,17.0256 18.7424,35.1496 38.1829,73.4893 43.9213,84.4123 55.9736,106.5474 11.453,21.0341 38.0762,71.33352 45.6834,86.31045 1.7114,3.3691 2.5872,7.4914 1.9463,9.161 -0.9966,2.5976 -89.5736,47.3828 -174.98868,88.4758 -13.89508,6.6849 -32.82916,15.9778 -42.07571,20.651 -9.24655,4.6731 -17.97157,8.4967 -19.38876,8.4967 -1.41719,0 -4.54046,-2.2243 -6.9403,-4.9429 z M 1150.4844,902.09265 c 0,-1.481 28.0443,-57.5351 46.6383,-93.2189 12.4893,-23.9687 28.5798,-55.17809 73.6201,-142.79548 10.8695,-21.14471 24.1946,-46.8479 29.6109,-57.11819 14.7718,-28.00932 40.2841,-77.23397 64.8999,-125.22062 12.0861,-23.56126 28.1345,-54.70166 35.6635,-69.20089 7.5288,-14.49923 29.5551,-57.50263 48.9473,-95.56311 19.3923,-38.06049 37.4722,-73.15522 40.1774,-77.9883 l 4.9185,-8.78741 153.9949,-0.56404 c 143.9231,-0.52716 153.9946,-0.31887 153.9946,3.18496 0,3.15614 -34.7182,74.19467 -39.5179,80.85951 -1.4715,2.04331 -9.3324,17.11876 -53.84,103.2521 -9.3652,18.12404 -22.7206,43.82723 -29.6786,57.11818 -19.4117,37.07928 -35.2271,67.42202 -52.1004,99.95682 -52.6713,101.56019 -60.9889,117.17476 -66.5169,124.87436 -2.7842,3.87742 -104.7168,56.01851 -172.453,88.21391 -29.0927,13.8279 -223.3759,108.5507 -230.0906,112.1806 -4.2727,2.3098 -8.268,2.7044 -8.268,0.8165 z m -57.118,-64.1785 c -9.983,-6.6925 -90.57,-79.95882 -151.55191,-137.78459 -31.6112,-29.97529 -37.5808,-36.33905 -36.1935,-38.58369 0.76981,-1.24545 57.6062,-2.05816 143.93801,-2.05816 137.7795,0 142.6656,0.14038 142.6656,4.0988 0,2.25434 -13.1883,30.67613 -29.3069,63.15947 -16.1188,32.48344 -34.571,69.93517 -41.005,83.22617 -16.2332,33.5339 -17.8476,35.1144 -28.5463,27.942 z"
       id="path1" />
  </g>
</svg>
